<svg xmlns="http://www.w3.org/2000/svg" viewBox="0 0 200 240" width="400" height="480"><g fill="none" stroke="#2b1710" stroke-width="5" stroke-linecap="round" stroke-linejoin="round"><ellipse cx="78" cy="221" rx="17" ry="8" fill="#e3a008"/><ellipse cx="122" cy="221" rx="17" ry="8" fill="#e3a008"/><path d="M34 168C30 110 62 70 100 70C138 70 170 110 166 168C164 200 138 214 100 214C62 214 36 200 34 168Z" fill="#ffc21a"/><path d="M44 126l4-5M155 121l-3-5M50 150l5-2M151 146l-5-2M146 92l-4-4" stroke="#fff5e1" stroke-width="4"/><path d="M60 142L140 142L150 196C134 210 66 210 50 196Z" fill="#2b1710"/><path d="M64 141C68 131 132 131 136 141" stroke-width="4"/><g transform="translate(100 191) scale(0.5) translate(-24 -24)" stroke="none"><rect width="48" height="48" rx="12" fill="#d7261e"/><path d="M11 24c0-7.4 5.8-12.5 13-12.5S37 16.6 37 24Z" fill="#ffc21a"/><path d="M17.6 18.9l2.8-1.4M23 15.6h3M28.2 17.7l2.8 1.4" stroke="#fff5e1" stroke-width="1.7"/><path d="M10.5 27.2q2.25-2.4 4.5 0t4.5 0 4.5 0 4.5 0 4.5 0 4.5 0" fill="none" stroke="#7CCB4E" stroke-width="2.6"/><rect x="10" y="30" width="28" height="5.2" rx="2.6" fill="#2b1710"/><rect x="11.5" y="36.6" width="25" height="4.4" rx="2.2" fill="#ffc21a"/></g><path d="M44 150Q52 166 70 162" fill="none" stroke-width="14"/><path d="M44 150Q52 166 70 162" fill="none" stroke="#ffc21a" stroke-width="6"/><path d="M156 150Q148 166 130 162" fill="none" stroke-width="14"/><path d="M156 150Q148 166 130 162" fill="none" stroke="#ffc21a" stroke-width="6"/><g class="m-eyes" stroke="none"><ellipse cx="82" cy="106" rx="6" ry="8" fill="#2b1710"/><ellipse cx="118" cy="106" rx="6" ry="8" fill="#2b1710"/><circle cx="84" cy="102.5" r="2.2" fill="#fffdf8"/><circle cx="120" cy="102.5" r="2.2" fill="#fffdf8"/></g><ellipse cx="66" cy="121" rx="7" ry="4" fill="#d7261e" stroke="none"/><ellipse cx="134" cy="121" rx="7" ry="4" fill="#d7261e" stroke="none"/><path class="m-ok" d="M90 118Q100 134 110 118Z" fill="#2b1710" stroke-width="3.5"/><path class="m-oops" opacity="0" d="M90 126Q95 120 100 125T110 124" stroke-width="3.5"/><g transform="translate(100 160) rotate(-4) scale(0.95)" stroke-width="3.5"><rect x="-24" y="8" width="48" height="11" rx="5.5" fill="#f4d9a6"/><rect x="-27" y="0" width="54" height="9" rx="4.5" fill="#2b1710"/><path d="M-26-2L26-2L23 4L17 0L10 7L3 0L-9 6L-15 0L-25 3Z" fill="#ffc21a"/><path d="M-27-4Q-22.5-9-18-4T-9-4T0-4T9-4T18-4T27-4" fill="none" stroke-width="8"/><path d="M-27-4Q-22.5-9-18-4T-9-4T0-4T9-4T18-4T27-4" fill="none" stroke="#4c9a2a" stroke-width="3.5"/><path d="M-25-6C-25-28 25-28 25-6Z" fill="#f4d9a6"/><path d="M-12-15l3-1.5M-2-20h3.4M8-14l3 1.4" stroke="#e3a008" stroke-width="2.4"/></g><circle cx="70" cy="162" r="8" fill="#ffc21a" stroke-width="4"/><circle cx="130" cy="162" r="8" fill="#ffc21a" stroke-width="4"/><g transform="translate(100 84) rotate(-5)"><path d="M28 0C50-5 72-2 77 6C67 12 45 11 26 8Z" fill="#a8141b"/><path d="M-47 5C-47-43 47-43 47 5Z" fill="#d7261e"/><circle cy="-31" r="4.5" fill="#a8141b" stroke-width="3.5"/><path d="M-38.9 -9L-35.9 -4.5L-32.9 -9M-35.9 -4.5L-35.9 0M-28.7 -6C-25.9 -6 -25.9 0 -28.7 0C-31.5 0-31.5 -6 -28.7 -6ZM-9.8 0L-9.8 -9L-6.1 -3.4L-2.4 -9L-2.4 0M-.4 -2.9L4.3 -2.9C4.3 -6.5 -.7 -6.6 -.7 -3C-.7 .6 3.5 .7 4.3 -1M6 0L6 -6M6 -3.4C6 -6.6 11 -6.6 11 -3.4L11 0M12.7 -6L12.7 -2.6C12.7 .6 17.7 .6 17.7 -2.6M17.7 -6L17.7 0M24.8 -7.4C23.8-9.6 19.5-9.4 19.6 -6.7C19.8 -4.2 25.2 -4.8 25.2 -2.2C25.2 .8 20.4 .8 19.4 -1.5M26.9 -9L26.9 0M31.7 -6L27.2 -2.5M28.8 -3.7L31.9 0M33.6 -6L36.2 -.4M38.8 -6L35.5 2.4" fill="none" stroke="#fffdf8" stroke-width="1.5"/><path d="M-18 -.4C-22.5 -3.8-21.7 -8 -19.5 -8C-18.5 -8 -18 -7.1 -18 -6.4C-18 -7.1 -17.5 -8 -16.5 -8C-14.3 -8 -13.5 -3.8 -18 -.4Z" fill="#ffc21a" stroke="none"/></g></g></svg>
